<svg width="60" height="809" viewBox="0 0 60 809" fill="none" xmlns="http://www.w3.org/2000/svg">
<path fill-rule="evenodd" clip-rule="evenodd" d="M0 0H60V809H0V0Z" fill="url(#paint0_linear_700_240)"/>
<path d="M39.5032 34.3248L30.2624 26.1537C30.0308 25.9488 29.687 25.9488 29.4554 26.1537L26.1607 29.0651V27.8859C26.1607 27.192 25.6087 26.6289 24.9286 26.6289C24.2485 26.6289 23.6965 27.192 23.6965 27.8859V31.2437L20.2121 34.3248C19.9558 34.5523 19.9275 34.9496 20.1505 35.2123C20.3748 35.4738 20.7629 35.5015 21.0204 35.2752L29.8571 27.461L38.6925 35.2752C38.8108 35.3783 38.9525 35.4286 39.0966 35.4286C39.2703 35.4286 39.4391 35.3544 39.5611 35.2123C39.7878 34.9496 39.7582 34.5549 39.5032 34.3248Z" fill="white"/>
<path d="M30.6258 30.57C30.4036 30.3817 30.1304 30.2857 29.8571 30.2857C29.5839 30.2857 29.3107 30.3805 29.0873 30.57L23.0159 35.6804C22.7341 35.9173 22.5714 36.2701 22.5714 36.6454V42.7532C22.5714 43.4415 23.1154 44 23.7857 44H27.4286V37.7662H32.2857V44H35.9286C36.5977 44 37.1429 43.4415 37.1429 42.7533V36.6454C37.1429 36.2689 36.9789 35.9173 36.6972 35.6817L30.6258 30.57Z" fill="white"/>
<path fill-rule="evenodd" clip-rule="evenodd" d="M8 157C8 154.239 10.2386 152 13 152H48C50.7614 152 53 154.239 53 157V192C53 194.761 50.7614 197 48 197H13C10.2386 197 8 194.761 8 192V157Z" fill="#2350BC" fill-opacity="0.3"/>
<path d="M29.0777 104.002C29.0777 103.392 29.2222 102.816 29.4775 102.304C29.3698 102.299 29.8227 102.3 22.866 102.3C21.3094 102.3 20.0221 103.566 20.0142 105.138L20 107.96C21.1014 107.96 21.323 107.96 22.4102 107.96L22.4243 105.15C22.425 105.011 22.5381 104.899 22.6772 104.899C22.8162 104.899 22.9287 105.012 22.9287 105.151V107.96H26.3072C27.0353 106.796 28.2873 106.065 29.6499 106.009C29.2801 105.413 29.0777 104.726 29.0777 104.002Z" fill="white"/>
<path d="M26.0975 96C24.7182 96 23.6 97.1182 23.6 98.4975C23.6 99.8706 24.7117 100.995 26.0975 100.995C27.467 100.995 28.5951 99.8856 28.5951 98.4975C28.5951 97.1181 27.4769 96 26.0975 96Z" fill="white"/>
<path d="M39.3376 113.425L39.3173 110.537C39.3095 108.979 38.0361 107.7 36.4656 107.7C34.6522 107.7 32.0477 107.7 30.148 107.7C28.5834 107.7 27.2221 108.973 27.2142 110.537L27.2 113.425H29.6102L29.6243 110.55C29.6249 110.43 29.7223 110.333 29.8421 110.333C29.9619 110.334 30.0587 110.431 30.0587 110.551V113.425C31.4715 113.425 35.1185 113.425 36.4417 113.425V110.551C36.4417 110.422 36.5455 110.318 36.6738 110.318C36.802 110.318 36.9065 110.421 36.9071 110.549L36.9212 113.425L39.3376 113.425Z" fill="white"/>
<path d="M32.4267 106.453C33.8221 106.453 34.9534 105.322 34.9534 103.927C34.9534 102.531 33.8221 101.4 32.4267 101.4C31.0312 101.4 29.9 102.531 29.9 103.927C29.9 105.322 31.0312 106.453 32.4267 106.453Z" fill="white"/>
<path fill-rule="evenodd" clip-rule="evenodd" d="M22 166V180.985C22 182.641 23.3419 183.982 24.997 183.982C26.6521 183.982 27.9942 182.641 27.9942 180.985V177.988H32.4898V166H22ZM23.4986 167.499H27.9942V168.997H23.4986V167.499ZM23.4986 177.988H26.4956V176.49H23.4986V177.988ZM29.4926 174.991H23.4986V173.493H29.4926V174.991ZM23.4986 171.994H30.9912V170.496H23.4986V171.994Z" fill="white"/>
<path d="M29.4926 179.487V180.985C29.4926 182.137 29.0536 183.186 28.3379 183.982H34.7376C36.3927 183.982 37.7346 182.641 37.7346 180.985V179.487H29.4926Z" fill="white"/>
<path fill-rule="evenodd" clip-rule="evenodd" d="M27.5218 253.775L20.5935 246.836C20.3417 246.583 20.3417 246.171 20.5935 245.918L30.4964 236C29.4279 236 27.9356 236.619 27.1801 237.376L19.5666 245.001C18.8111 245.758 18.8111 246.996 19.5666 247.753L25.2374 253.432C25.8531 254.049 26.7879 254.163 27.5218 253.775ZM38.9145 236H34.3817C33.3132 236 31.8209 236.619 31.0654 237.376L23.4519 245.001C22.6964 245.758 22.6964 246.996 23.4519 247.753L29.1227 253.432C29.8782 254.189 31.1145 254.189 31.8701 253.432L39.4834 245.807C40.239 245.05 40.8571 243.556 40.8571 242.486V237.946C40.8571 236.876 39.983 236 38.9145 236ZM36.3243 242.486C35.2514 242.486 34.3817 241.615 34.3817 240.54C34.3817 239.465 35.2514 238.594 36.3243 238.594C37.3972 238.594 38.2669 239.465 38.2669 240.54C38.2669 241.615 37.3972 242.486 36.3243 242.486Z" fill="white"/>
<defs>
<linearGradient id="paint0_linear_700_240" x1="0" y1="0" x2="0" y2="809" gradientUnits="userSpaceOnUse">
<stop stop-color="#4C8DEB"/>
<stop offset="1" stop-color="#4C60EB"/>
</linearGradient>
</defs>
</svg>
